<?xml version="1.0" standalone="no"?>
<!DOCTYPE svg PUBLIC "-//W3C//DTD SVG 20010904//EN"
 "http://www.w3.org/TR/2001/REC-SVG-20010904/DTD/svg10.dtd">
<svg version="1.0" xmlns="http://www.w3.org/2000/svg"
 width="500.000000pt" height="500.000000pt" viewBox="0 0 500.000000 500.000000"
 preserveAspectRatio="xMidYMid meet">
<metadata>
Created by potrace 1.14, written by Peter Selinger 2001-2017
</metadata>
<g transform="translate(0.000000,500.000000) scale(0.100000,-0.100000)"
fill="#000000" stroke="none">
<path d="M0 2500 l0 -2500 2500 0 2500 0 0 2500 0 2500 -2500 0 -2500 0 0
-2500z m2350 1570 c0 -5 -2 -10 -4 -10 -3 0 -8 5 -11 10 -3 6 -1 10 4 10 6 0
11 -4 11 -10z m404 -91 c-3 -5 -10 -7 -15 -3 -5 3 -7 10 -3 15 3 5 10 7 15 3
5 -3 7 -10 3 -15z m436 -29 c0 -5 -4 -10 -10 -10 -5 0 -10 5 -10 10 0 6 5 10
10 10 6 0 10 -4 10 -10z m-625 -20 c3 -5 -1 -10 -10 -10 -9 0 -13 5 -10 10 3
6 8 10 10 10 2 0 7 -4 10 -10z m415 -120 c0 -5 -4 -10 -10 -10 -5 0 -10 5 -10
10 0 6 5 10 10 10 6 0 10 -4 10 -10z m474 -61 c-3 -5 -10 -7 -15 -3 -5 3 -7
10 -3 15 3 5 10 7 15 3 5 -3 7 -10 3 -15z m-694 -49 c0 -5 -5 -10 -11 -10 -5
0 -7 5 -4 10 3 6 8 10 11 10 2 0 4 -4 4 -10z m450 -50 c0 -5 -4 -10 -10 -10
-5 0 -10 5 -10 10 0 6 5 10 10 10 6 0 10 -4 10 -10z m-1020 -100 c0 -5 -2 -10
-4 -10 -3 0 -8 5 -11 10 -3 6 -1 10 4 10 6 0 11 -4 11 -10z m-233 -51 c48 -30
93 -92 121 -167 23 -63 25 -80 27 -272 2 -216 9 -265 50 -336 29 -50 70 -78
207 -143 130 -62 191 -119 245 -228 31 -63 37 -87 41 -158 l4 -83 99 34 c115
40 253 100 341 147 35 19 69 32 77 29 8 -3 24 6 35 20 12 13 65 55 120 93 54
37 130 98 169 134 l71 66 -62 -76 c-74 -91 -237 -250 -342 -335 -368 -298
-824 -471 -1185 -449 -321 20 -541 162 -612 395 -23 76 -22 244 1 330 22 80
76 223 83 217 2 -3 -2 -21 -11 -40 -51 -123 -60 -317 -18 -410 80 -180 275
-267 595 -267 125 0 351 30 442 59 l60 19 -1 74 c-1 40 -7 86 -13 102 -12 29
-12 29 -26 9 -34 -48 -225 -144 -370 -184 -85 -23 -136 -24 -180 -3 -52 24
-66 53 -63 133 1 67 0 71 -35 110 -25 27 -37 51 -37 70 0 15 -9 40 -21 55 -18
22 -20 34 -14 77 9 67 -6 94 -70 126 -55 28 -95 60 -95 78 0 6 26 51 58 100
92 141 97 157 94 315 -3 180 10 234 81 343 30 45 34 48 67 42 19 -4 49 -16 67
-26z m663 21 c0 -5 -4 -10 -10 -10 -5 0 -10 5 -10 10 0 6 5 10 10 10 6 0 10
-4 10 -10z m-260 -195 c0 -8 -7 -15 -15 -15 -8 0 -15 7 -15 15 0 8 7 15 15 15
8 0 15 -7 15 -15z m480 -15 c0 -5 -2 -10 -4 -10 -3 0 -8 5 -11 10 -3 6 -1 10
4 10 6 0 11 -4 11 -10z m330 -16 c0 -8 -7 -14 -15 -14 -15 0 -21 21 -9 33 10
9 24 -2 24 -19z m-525 -4 c3 -5 1 -10 -4 -10 -6 0 -11 5 -11 10 0 6 2 10 4 10
3 0 8 -4 11 -10z m935 0 c0 -5 -4 -10 -10 -10 -5 0 -10 5 -10 10 0 6 5 10 10
10 6 0 10 -4 10 -10z m-540 -120 c0 -5 -2 -10 -4 -10 -3 0 -8 5 -11 10 -3 6
-1 10 4 10 6 0 11 -4 11 -10z m-680 -190 c0 -5 -4 -10 -10 -10 -5 0 -10 5 -10
10 0 6 5 10 10 10 6 0 10 -4 10 -10z m540 1 c0 -6 -4 -13 -10 -16 -5 -3 -10 1
-10 9 0 9 5 16 10 16 6 0 10 -4 10 -9z m720 -46 c0 -8 -4 -15 -10 -15 -5 0
-10 7 -10 15 0 8 5 15 10 15 6 0 10 -7 10 -15z m-1110 -60 c0 -8 -7 -15 -15
-15 -8 0 -15 7 -15 15 0 8 7 15 15 15 8 0 15 -7 15 -15z m245 -85 c-5 -8 -11
-8 -17 -2 -6 6 -7 16 -3 22 5 8 11 8 17 2 6 -6 7 -16 3 -22z m685 -60 c0 -5
-4 -10 -10 -10 -5 0 -10 5 -10 10 0 6 5 10 10 10 6 0 10 -4 10 -10z m-550
-310 c0 -5 -4 -10 -10 -10 -5 0 -10 5 -10 10 0 6 5 10 10 10 6 0 10 -4 10 -10z
m-1638 -852 c17 -14 148 -327 148 -354 0 -11 -8 -14 -32 -12 -31 3 -33 7 -80
123 -76 192 -66 179 -93 112 -41 -100 -41 -97 -1 -97 29 0 37 -4 42 -24 9 -37
-2 -46 -56 -46 -47 0 -50 -2 -64 -35 -13 -31 -19 -35 -50 -35 -20 0 -36 2 -36
4 0 12 141 351 151 362 14 17 50 18 71 2z m468 -1 c67 -34 60 -185 -10 -209
-7 -2 3 -28 29 -74 23 -39 41 -74 41 -78 0 -4 -17 -6 -37 -4 -35 3 -40 7 -81
81 l-44 78 -46 -3 -47 -3 -3 -77 -3 -78 -29 0 -30 0 0 110 0 110 109 0 c120 0
135 7 129 57 l-3 28 -117 3 -118 3 0 28 c0 15 3 31 7 34 12 13 227 7 253 -6z
m435 -22 c0 -30 0 -30 -62 -33 l-62 -3 -3 -152 -3 -152 -32 -3 -33 -3 0 155 0
156 -65 0 c-65 0 -65 0 -65 28 0 16 3 32 7 36 4 3 77 5 162 4 l156 -3 0 -30z
m120 -155 l0 -185 -32 -3 -33 -3 0 184 c0 101 3 187 7 191 4 4 19 6 33 4 l25
-3 0 -185z m335 155 l0 -35 -140 0 -140 0 0 28 c0 16 3 32 7 35 3 4 66 7 140
7 l133 0 0 -35z m118 -157 l2 -188 -30 0 -30 0 0 183 c0 101 3 187 7 191 4 4
16 6 28 4 19 -3 20 -10 23 -190z m347 157 l0 -30 -100 -3 c-123 -3 -125 -5
-125 -122 0 -117 2 -119 125 -122 l100 -3 0 -30 0 -30 -118 0 c-116 0 -119 1
-142 27 -40 47 -45 229 -9 300 19 37 59 47 174 45 l95 -2 0 -30z m113 -157 l2
-188 -30 0 -30 0 0 183 c0 101 3 187 7 191 4 4 16 6 28 4 19 -3 20 -10 23
-190z m286 170 c14 -23 146 -341 146 -353 0 -3 -16 -5 -36 -3 l-36 3 -58 144
c-31 79 -60 140 -63 135 -10 -18 -47 -119 -47 -131 0 -8 13 -13 30 -13 24 0
33 -6 41 -27 13 -34 0 -43 -62 -43 -42 0 -47 -3 -62 -35 -14 -29 -22 -35 -47
-35 -18 0 -30 5 -30 13 0 26 132 342 148 355 25 19 60 14 76 -10z m266 -133
l5 -150 97 -3 c102 -3 116 -10 103 -53 -6 -17 -18 -19 -101 -19 -110 0 -146
14 -163 61 -12 35 -15 301 -4 313 4 4 19 6 33 4 l25 -3 5 -150z m-1130 -35 l0
-29 -107 -3 -108 -3 -3 -77 -3 -78 -29 0 -30 0 0 103 c0 57 3 107 7 110 3 4
66 7 140 7 l133 0 0 -30z m-952 -386 c-2 -38 -7 -69 -13 -69 -11 0 -19 119
-10 143 13 34 26 -8 23 -74z m592 11 c0 -42 4 -65 13 -68 6 -2 9 -8 5 -12 -4
-4 -14 -5 -23 -2 -12 5 -15 23 -15 82 0 48 4 74 10 70 6 -3 10 -35 10 -70z
m110 0 c0 -42 4 -65 13 -68 6 -2 9 -8 5 -12 -4 -4 -14 -5 -23 -2 -12 5 -15 23
-15 82 0 48 4 74 10 70 6 -3 10 -35 10 -70z m120 55 c0 -5 -7 -10 -15 -10 -8
0 -15 5 -15 10 0 6 7 10 15 10 8 0 15 -4 15 -10z m-530 -11 c0 -7 8 -18 18
-25 16 -13 16 -13 0 -14 -24 0 -25 -55 -1 -69 10 -5 14 -13 10 -17 -16 -16
-42 13 -45 50 -2 20 -7 36 -12 36 -4 0 -3 11 3 25 12 26 27 33 27 14z m-115
-43 c17 -26 17 -77 0 -77 -5 0 -12 17 -15 38 -4 27 -11 39 -24 41 -24 5 -36
-14 -36 -55 0 -18 -4 -33 -10 -33 -10 0 -15 92 -5 101 2 3 20 6 39 7 28 2 39
-3 51 -22z m309 8 c29 -28 20 -44 -25 -44 -28 0 -39 -4 -36 -12 2 -7 18 -13
35 -13 40 0 36 -19 -5 -23 -35 -4 -55 16 -55 53 0 50 52 74 86 39z m334 -45
c-2 -24 -7 -44 -13 -44 -12 0 -19 69 -10 93 11 29 26 -4 23 -49z m176 39 c16
-23 21 -74 10 -103 -11 -28 -53 -38 -81 -19 -29 18 -24 31 5 15 23 -12 48 -6
56 14 4 11 -2 13 -24 8 -38 -7 -60 11 -60 48 0 55 64 80 94 37z m180 0 c24
-34 20 -38 -30 -38 -41 0 -45 -2 -34 -16 7 -8 24 -14 36 -12 13 2 23 -1 24 -7
0 -5 -14 -10 -32 -10 -24 0 -36 6 -47 26 -13 24 -13 29 2 53 22 33 60 34 81 4z
m181 -2 c17 -26 17 -77 0 -77 -5 0 -12 17 -15 38 -4 27 -11 39 -24 41 -24 5
-36 -14 -36 -55 0 -18 -4 -33 -10 -33 -10 0 -15 92 -5 101 2 3 20 6 39 7 28 2
39 -3 51 -22z m169 18 c27 -10 18 -22 -16 -20 -30 1 -33 -2 -33 -29 0 -25 4
-30 25 -31 37 0 40 -18 4 -22 -36 -3 -56 16 -56 53 0 45 32 66 76 49z m180
-10 c29 -28 20 -44 -25 -44 -28 0 -39 -4 -36 -12 2 -7 18 -13 35 -13 40 0 36
-19 -5 -23 -35 -4 -55 16 -55 53 0 50 52 74 86 39z"/>
<path d="M2087 1014 c-15 -15 -6 -24 24 -24 20 0 29 4 27 13 -5 14 -40 21 -51
11z"/>
<path d="M2584 1006 c-11 -28 1 -51 25 -51 32 0 49 28 32 49 -17 20 -50 21
-57 2z"/>
<path d="M2770 1005 c0 -9 9 -15 25 -15 16 0 25 6 25 15 0 9 -9 15 -25 15 -16
0 -25 -6 -25 -15z"/>
<path d="M3307 1014 c-15 -15 -6 -24 24 -24 20 0 29 4 27 13 -5 14 -40 21 -51
11z"/>
</g>
</svg>
